<?xml version="1.0" encoding="UTF-8" standalone="no"?>
<!DOCTYPE svg PUBLIC "-//W3C//DTD SVG 1.1//EN" "http://www.w3.org/Graphics/SVG/1.1/DTD/svg11.dtd">
<svg version="1.1" xmlns="http://www.w3.org/2000/svg" xmlns:xlink="http://www.w3.org/1999/xlink" preserveAspectRatio="xMidYMid meet" viewBox="212.17567567567622 175.78214551025658 214.15473304229678 199.48136800325656" width="210.15" height="195.48"><defs><path d="M388.6 186.82L389.5 185.96L390.46 185.14L391.47 184.39L392.53 183.69L393.64 183.06L394.79 182.5L396 182.01L397.24 181.59L398.53 181.25L399.83 180.99L401.14 180.82L402.43 180.73L403.72 180.73L405 180.81L406.25 180.97L407.49 181.21L408.71 181.52L409.9 181.91L411.06 182.37L412.19 182.89L413.28 183.49L414.34 184.14L415.35 184.87L416.32 185.65L417.24 186.49L418.11 187.4L418.92 188.35L419.68 189.36L420.37 190.42L421 191.53L421.57 192.69L422.06 193.89L422.48 195.14L422.82 196.42L423.07 197.73L423.24 199.03L423.33 200.33L423.33 201.62L423.25 202.89L423.09 204.15L422.85 205.39L422.54 206.6L422.16 207.79L421.7 208.95L421.17 210.08L420.58 211.18L419.92 212.23L419.2 213.24L418.41 214.21L417.57 215.13L416.67 216L415.71 216.82L414.7 217.57L413.64 218.27L412.53 218.9L411.38 219.46L410.17 219.95L408.93 220.37L407.64 220.71L406.33 220.97L405.03 221.14L403.73 221.22L402.45 221.22L401.17 221.14L399.92 220.98L398.68 220.75L397.46 220.44L396.27 220.05L395.11 219.59L393.98 219.07L392.89 218.47L391.83 217.81L390.82 217.09L389.85 216.31L388.93 215.46L388.06 214.56L387.25 213.61L386.49 212.6L385.8 211.54L385.17 210.43L384.6 209.27L384.11 208.07L383.69 206.82L383.35 205.53L383.09 204.23L382.92 202.93L382.84 201.63L382.84 200.34L382.92 199.07L383.08 197.81L383.27 196.82L343.56 188.38L317.53 230.04L318.19 230.07L322.11 230.36L325.97 230.76L329.79 231.28L333.55 231.9L337.26 232.63L340.9 233.46L344.48 234.4L348 235.43L351.45 236.56L354.83 237.79L355.04 237.87L403.75 237.87L403.75 281.96L404.47 283.94L405.32 286.7L406.03 289.5L406.58 292.34L406.98 295.21L407.22 298.11L407.3 301.05L407.22 303.98L406.98 306.88L406.58 309.76L406.03 312.59L405.32 315.39L404.47 318.15L403.48 320.87L402.35 323.55L401.07 326.18L399.66 328.76L398.13 331.29L396.46 333.76L394.66 336.19L392.75 338.55L390.71 340.85L388.56 343.1L386.3 345.27L383.92 347.38L381.44 349.42L378.86 351.39L376.17 353.29L373.39 355.11L370.51 356.85L367.54 358.52L364.49 360.09L361.35 361.59L358.13 362.99L354.83 364.31L351.45 365.53L348 366.66L344.48 367.7L340.9 368.63L337.26 369.46L333.55 370.19L329.79 370.82L325.97 371.33L322.11 371.74L318.19 372.03L314.23 372.2L310.24 372.26L306.24 372.2L302.28 372.03L298.37 371.74L294.5 371.33L290.69 370.82L286.92 370.19L283.22 369.46L279.57 368.63L275.99 367.7L272.47 366.66L269.02 365.53L265.65 364.31L262.35 362.99L259.12 361.59L255.98 360.09L252.93 358.52L249.96 356.85L247.09 355.11L244.3 353.29L241.62 351.39L239.03 349.42L236.55 347.38L234.18 345.27L231.91 343.1L229.76 340.85L227.73 338.55L225.81 336.19L224.02 333.76L222.35 331.29L220.81 328.76L219.4 326.18L218.13 323.55L216.99 320.87L216 318.15L215.15 315.39L214.45 312.59L213.9 309.76L213.5 306.88L213.26 303.98L213.18 301.05L213.26 298.11L213.5 295.21L213.9 292.34L214.45 289.5L215.15 286.7L216 283.94L216.99 281.22L218.13 278.55L219.4 275.92L219.49 275.75L219.49 235.23L273.16 235.23L275.99 234.4L279.57 233.46L283.22 232.63L286.92 231.9L290.69 231.28L294.5 230.76L298.37 230.36L302.28 230.07L305.41 229.93L338.59 176.81L338.71 176.89L338.74 176.78L388.17 187.29L388.6 186.82ZM310.24 349.29L360.78 324.02L264.29 324.02L310.24 349.29ZM261.66 265.63L260.39 265.87L259.15 266.19L257.95 266.6L256.79 267.1L255.67 267.66L254.6 268.31L253.58 269.02L252.61 269.81L251.7 270.66L250.86 271.57L250.07 272.53L249.36 273.55L248.71 274.62L248.14 275.74L247.65 276.9L247.24 278.1L246.92 279.34L246.68 280.61L246.54 281.92L246.49 283.24L246.54 284.57L246.68 285.87L246.92 287.14L247.24 288.38L247.65 289.58L248.14 290.75L248.71 291.86L249.36 292.93L250.07 293.96L250.86 294.92L251.7 295.83L252.61 296.68L253.58 297.46L254.6 298.18L255.67 298.82L256.79 299.39L257.95 299.88L259.15 300.29L260.39 300.62L261.66 300.85L262.96 301L264.29 301.05L265.62 301L266.92 300.85L268.19 300.62L269.43 300.29L270.63 299.88L271.79 299.39L272.91 298.82L273.98 298.18L275 297.46L275.97 296.68L276.88 295.83L277.73 294.92L278.51 293.96L279.22 292.93L279.87 291.86L280.44 290.75L280.93 289.58L281.34 288.38L281.67 287.14L281.9 285.87L282.05 284.57L282.09 283.24L282.05 281.92L281.9 280.61L281.67 279.34L281.34 278.1L280.93 276.9L280.44 275.74L279.87 274.62L279.22 273.55L278.51 272.53L277.73 271.57L276.88 270.66L275.97 269.81L275 269.02L273.98 268.31L272.91 267.66L271.79 267.1L270.63 266.6L269.43 266.19L268.19 265.87L266.92 265.63L265.62 265.49L264.29 265.44L262.96 265.49L261.66 265.63ZM353.55 265.63L352.28 265.87L351.04 266.19L349.84 266.6L348.68 267.1L347.56 267.66L346.49 268.31L345.47 269.02L344.5 269.81L343.6 270.66L342.75 271.57L341.96 272.53L341.25 273.55L340.6 274.62L340.03 275.74L339.54 276.9L339.13 278.1L338.81 279.34L338.57 280.61L338.43 281.92L338.38 283.24L338.43 284.57L338.57 285.87L338.81 287.14L339.13 288.38L339.54 289.58L340.03 290.75L340.6 291.86L341.25 292.93L341.96 293.96L342.75 294.92L343.6 295.83L344.5 296.68L345.47 297.46L346.49 298.18L347.56 298.82L348.68 299.39L349.84 299.88L351.04 300.29L352.28 300.62L353.55 300.85L354.85 301L356.18 301.05L357.51 301L358.81 300.85L360.08 300.62L361.32 300.29L362.52 299.88L363.69 299.39L364.8 298.82L365.87 298.18L366.89 297.46L367.86 296.68L368.77 295.83L369.62 294.92L370.4 293.96L371.12 292.93L371.76 291.86L372.33 290.75L372.82 289.58L373.23 288.38L373.56 287.14L373.79 285.87L373.94 284.57L373.99 283.24L373.94 281.92L373.79 280.61L373.56 279.34L373.23 278.1L372.82 276.9L372.33 275.74L371.76 274.62L371.12 273.55L370.4 272.53L369.62 271.57L368.77 270.66L367.86 269.81L366.89 269.02L365.87 268.31L364.8 267.66L363.69 267.1L362.52 266.6L361.32 266.19L360.08 265.87L358.81 265.63L357.51 265.49L356.18 265.44L354.85 265.49L353.55 265.63Z" id="armtfTsln"></path></defs><g><g><use xlink:href="#armtfTsln" opacity="1" fill="#ffffff" fill-opacity="1"></use></g></g></svg>