<?xml version="1.0" encoding="UTF-8" standalone="no"?>
<!DOCTYPE svg PUBLIC "-//W3C//DTD SVG 1.1//EN" "http://www.w3.org/Graphics/SVG/1.1/DTD/svg11.dtd">
<svg version="1.1" xmlns="http://www.w3.org/2000/svg" xmlns:xlink="http://www.w3.org/1999/xlink" preserveAspectRatio="xMidYMid meet" viewBox="137.39080459770122 100.03448275862075 401.7011494252875 401.7011494252875" width="397.7" height="397.7"><defs><path d="M536.09 299.89C536.09 409.63 446.99 498.74 337.24 498.74C227.49 498.74 138.39 409.63 138.39 299.89C138.39 190.14 227.49 101.03 337.24 101.03C446.99 101.03 536.09 190.14 536.09 299.89Z" id="e4HsxfwQlQ"></path><path d="M412.3 211.15L413.03 210.13L413.81 209.17L414.65 208.25L415.55 207.38L416.51 206.56L417.52 205.81L418.58 205.11L419.69 204.48L420.85 203.92L422.05 203.43L423.3 203.01L424.58 202.67L425.89 202.41L427.19 202.24L428.49 202.16L429.78 202.15L431.05 202.23L432.31 202.39L433.55 202.63L434.76 202.94L435.95 203.33L437.11 203.79L438.24 204.31L439.34 204.91L440.39 205.57L441.4 206.29L442.37 207.07L443.29 207.92L444.16 208.82L444.97 209.77L445.73 210.78L446.43 211.84L447.06 212.95L447.62 214.11L448.11 215.31L448.53 216.56L448.87 217.84L449.13 219.15L449.3 220.45L449.38 221.75L449.38 223.04L449.3 224.31L449.14 225.57L448.91 226.81L448.6 228.02L448.21 229.21L447.75 230.38L447.23 231.5L446.63 232.6L445.97 233.65L445.25 234.67L444.47 235.63L443.62 236.55L442.72 237.42L441.77 238.24L440.76 238.99L439.7 239.69L438.59 240.32L437.43 240.88L436.23 241.37L434.98 241.79L433.69 242.13L432.39 242.39L431.08 242.56L429.79 242.65L428.5 242.65L427.23 242.57L425.97 242.41L424.73 242.17L423.52 241.86L422.32 241.47L421.16 241.01L420.03 240.49L418.94 239.89L417.89 239.23L416.87 238.51L415.9 237.73L414.98 236.88L414.12 235.98L413.3 235.03L412.55 234.02L411.85 232.96L411.22 231.85L410.66 230.69L410.17 229.49L409.75 228.24L409.41 226.96L409.15 225.65L408.98 224.35L408.89 223.05L408.89 221.92L370.42 213.74L344.39 255.4L345.06 255.43L348.97 255.72L352.84 256.13L356.65 256.64L360.41 257.26L364.12 257.99L367.77 258.83L371.35 259.76L374.87 260.79L378.31 261.92L381.69 263.15L381.91 263.23L430.61 263.23L430.61 307.32L431.34 309.3L432.19 312.06L432.89 314.86L433.44 317.7L433.84 320.57L434.08 323.48L434.16 326.41L434.08 329.34L433.84 332.25L433.44 335.12L432.89 337.95L432.19 340.75L431.34 343.52L430.35 346.23L429.21 348.91L427.94 351.54L426.53 354.12L424.99 356.65L423.32 359.13L421.53 361.55L419.61 363.91L417.58 366.22L415.42 368.46L413.16 370.63L410.79 372.75L408.3 374.79L405.72 376.76L403.04 378.65L400.25 380.47L397.38 382.22L394.41 383.88L391.35 385.46L388.21 386.95L384.99 388.36L381.69 389.67L378.31 390.9L374.87 392.03L371.35 393.06L367.77 393.99L364.12 394.83L360.41 395.55L356.65 396.18L352.84 396.69L348.97 397.1L345.06 397.39L341.1 397.57L337.1 397.63L333.1 397.57L329.15 397.39L325.23 397.1L321.37 396.69L317.55 396.18L313.79 395.55L310.08 394.83L306.44 393.99L302.85 393.06L299.34 392.03L295.89 390.9L292.51 389.67L289.21 388.36L285.99 386.95L282.85 385.46L279.79 383.88L276.83 382.22L273.95 380.47L271.17 378.65L268.48 376.76L265.9 374.79L263.42 372.75L261.04 370.63L258.78 368.46L256.63 366.22L254.59 363.91L252.67 361.55L250.88 359.13L249.21 356.65L247.67 354.12L246.27 351.54L244.99 348.91L243.86 346.23L242.86 343.52L242.01 340.75L241.31 337.95L240.76 335.12L240.36 332.25L240.12 329.34L240.04 326.41L240.12 323.48L240.36 320.57L240.76 317.7L241.31 314.86L242.01 312.06L242.86 309.3L243.86 306.58L244.99 303.91L246.27 301.28L246.36 301.11L246.36 260.59L300.02 260.59L302.85 259.76L306.44 258.83L310.08 257.99L313.79 257.26L317.55 256.64L321.37 256.13L325.23 255.72L329.15 255.43L332.27 255.29L365.46 202.18L365.58 202.25L365.6 202.14L411.8 211.96L412.3 211.15ZM337.1 374.65L387.64 349.38L291.16 349.38L337.1 374.65ZM288.53 290.99L287.25 291.23L286.02 291.56L284.81 291.97L283.65 292.46L282.53 293.03L281.46 293.67L280.44 294.39L279.48 295.17L278.57 296.02L277.72 296.93L276.94 297.89L276.22 298.91L275.58 299.98L275.01 301.1L274.52 302.26L274.11 303.47L273.78 304.7L273.54 305.98L273.4 307.28L273.35 308.61L273.4 309.93L273.54 311.23L273.78 312.51L274.11 313.75L274.52 314.95L275.01 316.11L275.58 317.23L276.22 318.3L276.94 319.32L277.72 320.28L278.57 321.19L279.48 322.04L280.44 322.82L281.46 323.54L282.53 324.18L283.65 324.75L284.81 325.25L286.02 325.66L287.25 325.98L288.53 326.22L289.83 326.36L291.16 326.41L292.48 326.36L293.78 326.22L295.06 325.98L296.3 325.66L297.5 325.25L298.66 324.75L299.78 324.18L300.85 323.54L301.87 322.82L302.83 322.04L303.74 321.19L304.59 320.28L305.37 319.32L306.09 318.3L306.73 317.23L307.3 316.11L307.8 314.95L308.21 313.75L308.53 312.51L308.77 311.23L308.91 309.93L308.96 308.61L308.91 307.28L308.77 305.98L308.53 304.7L308.21 303.47L307.8 302.26L307.3 301.1L306.73 299.98L306.09 298.91L305.37 297.89L304.59 296.93L303.74 296.02L302.83 295.17L301.87 294.39L300.85 293.67L299.78 293.03L298.66 292.46L297.5 291.97L296.3 291.56L295.06 291.23L293.78 290.99L292.48 290.85L291.16 290.8L289.83 290.85L288.53 290.99ZM380.42 290.99L379.15 291.23L377.91 291.56L376.71 291.97L375.54 292.46L374.43 293.03L373.36 293.67L372.34 294.39L371.37 295.17L370.46 296.02L369.61 296.93L368.83 297.89L368.11 298.91L367.47 299.98L366.9 301.1L366.41 302.26L366 303.47L365.67 304.7L365.44 305.98L365.29 307.28L365.24 308.61L365.29 309.93L365.44 311.23L365.67 312.51L366 313.75L366.41 314.95L366.9 316.11L367.47 317.23L368.11 318.3L368.83 319.32L369.61 320.28L370.46 321.19L371.37 322.04L372.34 322.82L373.36 323.54L374.43 324.18L375.54 324.75L376.71 325.25L377.91 325.66L379.15 325.98L380.42 326.22L381.72 326.36L383.05 326.41L384.38 326.36L385.68 326.22L386.95 325.98L388.19 325.66L389.39 325.25L390.55 324.75L391.67 324.18L392.74 323.54L393.76 322.82L394.73 322.04L395.63 321.19L396.48 320.28L397.27 319.32L397.98 318.3L398.63 317.23L399.2 316.11L399.69 314.95L400.1 313.75L400.42 312.51L400.66 311.23L400.8 309.93L400.85 308.61L400.8 307.28L400.66 305.98L400.42 304.7L400.1 303.47L399.69 302.26L399.2 301.1L398.63 299.98L397.98 298.91L397.27 297.89L396.48 296.93L395.63 296.02L394.73 295.17L393.76 294.39L392.74 293.67L391.67 293.03L390.55 292.46L389.39 291.97L388.19 291.56L386.95 291.23L385.68 290.99L384.38 290.85L383.05 290.8L381.72 290.85L380.42 290.99Z" id="aiHPQKoxb"></path></defs><g><g><use xlink:href="#e4HsxfwQlQ" opacity="1" fill="#03a9f4" fill-opacity="1"></use></g><g><use xlink:href="#aiHPQKoxb" opacity="1" fill="#ffffff" fill-opacity="1"></use></g></g></svg>